{"title":"Star Trek : The Motion Picture 1979 BRRip H264 AAC - Icebane","uid":5305699,"size":2394875167,"categoryP":"video","categoryS":"movies","magnet":"?xt=urn:btih:1dfce1ad2209af56578eb0d4a51c06f33f483984&amp;dn=Star+Trek+%3A+The+Motion+Picture+1979+BRRip+H264+AAC+-+Icebane&amp;tr=udp%3A%2F%2Ftracker.openbittorrent.com%3A80&amp;tr=udp%3A%2F%2Fopen.demonii.com%3A1337&amp;tr=udp%3A%2F%2Ftracker.coppersurfer.tk%3A6969&amp;tr=udp%3A%2F%2Fexodus.desync.com%3A6969","seeders":0,"leechers":0,"uploader":"IceBane","files":-1,"time":1264377512,"description":"General:\n\n\nTitle: Star Trek: The Motion Picture  \nDirector: Robert Wise\nRelease Date: 7 December 1979 (USA)\nRuntime: 132 min   \nGenre: Sci-Fi | Adventure | Fantasy\nColor: Color\nIMDb Rating:  6.2/10   23,989 votes         \nIMDB Link: http://www.imdb.com/title/tt0079945/\nStudio: Paramount\nLanguage: English\nSubtitles: English, English SDH, French, German, Spanish\nSample Video: yes\n\n\nPlot:\n\nAn alien phenomenon of unprecedented size and power is approaching Earth, destroying everything in its path. The only starship in range is the U.S.S. Enterprise--still in drydock after a major overhaul. As Captain Decker readies his ship and his crew to face this menace, the legendary Admiral James T. Kirk arrives with orders to take command of the Enterprise and intercept the intruder. But it has been three years since Kirk last commanded the Enterprise on its historic five year mission...is he up to the task of saving the Earth?\n\n\nVideo:\n\n\nFormat                           : H.264/MPEG-4 AVC\nFormat/Info                      : Advanced Video Codec\nFormat profile                   : &lt;a class=&quot;__cf_email__&quot; href=&quot;/cdn-cgi/l/email-protection&quot; data-cfemail=&quot;bff7d6d8d7fff38b918e&quot;&gt;[email&amp;#160;protected]&lt;/a&gt;&lt;script cf-hash='f9e31' type=&quot;text/javascript&quot;&gt;\n/* &lt;![CDATA[ */!function(){try{var t=&quot;currentScript&quot;in document?document.currentScript:function(){for(var t=document.getElementsByTagName(&quot;script&quot;),e=t.length;e--;)if(t[e].getAttribute(&quot;cf-hash&quot;))return t[e]}();if(t&amp;&amp;t.previousSibling){var e,r,n,i,c=t.previousSibling,a=c.getAttribute(&quot;data-cfemail&quot;);if(a){for(e=&quot;&quot;,r=parseInt(a.substr(0,2),16),n=2;a.length-n;n+=2)i=parseInt(a.substr(n,2),16)^r,e+=String.fromCharCode(i);e=document.createTextNode(e),c.parentNode.replaceChild(e,c)}}}catch(u){}}();/* ]]&gt; */&lt;/script&gt;\nFormat settings, CABAC           : Yes\nFormat settings, ReFrames        : 4 frames\nCodec ID                         : avc1\nCodec ID/Info                    : Advanced Video Coding\nDuration                         : 2h 10mn\nBit rate mode                    : Variable\nBit rate                         : 1970 Kbps\nMaximum bit rate                 : 13.1 Mbps\nWidth                            : 1374 pixels\nHeight                           : 592 pixels\nDisplay aspect ratio             : 2.35:1\nFrame rate mode                  : Constant\nFrame rate                       : 23.976 fps\nResolution                       : 24 bits\nColorimetry                      : 4:2:0\nScan type                        : Progressive\nBits/(Pixel*Frame)               : 0.101\nStream size                      : 1.79 GiB (81%)\n\n\nAudio:\n\n\nFormat                           : mp4a - MPEG-4 AAC LC\nFormat/Info                      : Advanced Audio Codec\nFormat version                   : Version 4\nFormat profile                   : LC\nFormat settings, SBR             : No\nCodec ID                         : 40\nDuration                         : 2h 10mn\nBit rate mode                    : Variable\nBit rate                         : 459 Kbps\nMaximum bit rate                 : 518 Kbps\nChannel(s)                       : 6 channels\nChannel positions                : Front: L C R, Rear: L R, LFE\nSampling rate                    : 48.0 KHz\nResolution                       : 16 bits\nStream size                      : 428 MiB (19%)\n\n\n\nThanks and keep seeding.\n\nIceBane\n\n\n\n\n\n","torrent":{"xt":"urn:btih:1dfce1ad2209af56578eb0d4a51c06f33f483984","amp;dn":"Star+Trek+%3A+The+Motion+Picture+1979+BRRip+H264+AAC+-+Icebane","amp;tr":["udp%3A%2F%2Ftracker.openbittorrent.com%3A80","udp%3A%2F%2Fopen.demonii.com%3A1337","udp%3A%2F%2Ftracker.coppersurfer.tk%3A6969","udp%3A%2F%2Fexodus.desync.com%3A6969"],"infoHash":"1dfce1ad2209af56578eb0d4a51c06f33f483984","infoHashBuffer":{"type":"Buffer","data":[29,252,225,173,34,9,175,86,87,142,176,212,165,28,6,243,63,72,57,132]},"announce":[],"urlList":[]}}